<mxfile host="app.diagrams.net" modified="2021-01-11T09:04:05.297Z" agent="5.0 (Windows NT 10.0; Win64; x64) AppleWebKit/537.36 (KHTML, like Gecko) Chrome/87.0.4280.88 Safari/537.36 OPR/73.0.3856.329" etag="u-NxnN50z1YliBaI4BFU" version="14.1.9" type="github">
  <diagram id="6h-ryn_Bd7cEUJCTQeA7" name="Page-1">
    <mxGraphModel dx="1825" dy="548" grid="1" gridSize="10" guides="1" tooltips="1" connect="1" arrows="1" fold="1" page="1" pageScale="1" pageWidth="827" pageHeight="1169" math="0" shadow="0">
      <root>
        <mxCell id="0" />
        <mxCell id="1" parent="0" />
        <mxCell id="elkEW9s6FneCZuYYw3mL-1" value="" style="ellipse;html=1;shape=endState;fillColor=#000000;" vertex="1" parent="1">
          <mxGeometry x="50" y="130" width="30" height="30" as="geometry" />
        </mxCell>
        <mxCell id="elkEW9s6FneCZuYYw3mL-5" value="" style="endArrow=classic;html=1;exitX=0.5;exitY=1;exitDx=0;exitDy=0;" edge="1" parent="1" source="elkEW9s6FneCZuYYw3mL-1">
          <mxGeometry width="50" height="50" relative="1" as="geometry">
            <mxPoint x="390" y="310" as="sourcePoint" />
            <mxPoint x="65" y="175" as="targetPoint" />
          </mxGeometry>
        </mxCell>
        <mxCell id="elkEW9s6FneCZuYYw3mL-7" value="input n" style="ellipse;whiteSpace=wrap;html=1;strokeColor=#000000;" vertex="1" parent="1">
          <mxGeometry x="-5" y="180" width="140" height="40" as="geometry" />
        </mxCell>
        <mxCell id="elkEW9s6FneCZuYYw3mL-8" value="" style="endArrow=classic;html=1;exitX=0.5;exitY=1;exitDx=0;exitDy=0;" edge="1" parent="1" source="elkEW9s6FneCZuYYw3mL-7">
          <mxGeometry width="50" height="50" relative="1" as="geometry">
            <mxPoint x="150" y="270" as="sourcePoint" />
            <mxPoint x="65" y="260" as="targetPoint" />
          </mxGeometry>
        </mxCell>
        <mxCell id="elkEW9s6FneCZuYYw3mL-12" value="" style="rhombus;whiteSpace=wrap;html=1;strokeColor=#000000;" vertex="1" parent="1">
          <mxGeometry x="37.5" y="260" width="55" height="40" as="geometry" />
        </mxCell>
        <mxCell id="elkEW9s6FneCZuYYw3mL-13" value="" style="endArrow=none;html=1;" edge="1" parent="1">
          <mxGeometry width="50" height="50" relative="1" as="geometry">
            <mxPoint x="90" y="280" as="sourcePoint" />
            <mxPoint x="190" y="380" as="targetPoint" />
          </mxGeometry>
        </mxCell>
        <mxCell id="elkEW9s6FneCZuYYw3mL-14" value="" style="endArrow=none;html=1;" edge="1" parent="1">
          <mxGeometry width="50" height="50" relative="1" as="geometry">
            <mxPoint x="90" y="280" as="sourcePoint" />
            <mxPoint x="200" y="240" as="targetPoint" />
          </mxGeometry>
        </mxCell>
        <mxCell id="elkEW9s6FneCZuYYw3mL-15" value="" style="endArrow=none;html=1;exitX=1;exitY=0.5;exitDx=0;exitDy=0;" edge="1" parent="1" source="elkEW9s6FneCZuYYw3mL-12">
          <mxGeometry width="50" height="50" relative="1" as="geometry">
            <mxPoint x="230" y="250" as="sourcePoint" />
            <mxPoint x="200" y="180" as="targetPoint" />
          </mxGeometry>
        </mxCell>
        <mxCell id="elkEW9s6FneCZuYYw3mL-16" value="" style="endArrow=none;html=1;exitX=1;exitY=0.5;exitDx=0;exitDy=0;" edge="1" parent="1" source="elkEW9s6FneCZuYYw3mL-12">
          <mxGeometry width="50" height="50" relative="1" as="geometry">
            <mxPoint x="290" y="240" as="sourcePoint" />
            <mxPoint x="190" y="310" as="targetPoint" />
          </mxGeometry>
        </mxCell>
        <mxCell id="elkEW9s6FneCZuYYw3mL-17" value="" style="endArrow=none;html=1;" edge="1" parent="1">
          <mxGeometry width="50" height="50" relative="1" as="geometry">
            <mxPoint x="190" y="310" as="sourcePoint" />
            <mxPoint x="360" y="310" as="targetPoint" />
          </mxGeometry>
        </mxCell>
        <mxCell id="elkEW9s6FneCZuYYw3mL-18" value="" style="endArrow=none;html=1;" edge="1" parent="1">
          <mxGeometry width="50" height="50" relative="1" as="geometry">
            <mxPoint x="200" y="180" as="sourcePoint" />
            <mxPoint x="360" y="180" as="targetPoint" />
          </mxGeometry>
        </mxCell>
        <mxCell id="elkEW9s6FneCZuYYw3mL-19" value="" style="endArrow=none;html=1;" edge="1" parent="1">
          <mxGeometry width="50" height="50" relative="1" as="geometry">
            <mxPoint x="200" y="240" as="sourcePoint" />
            <mxPoint x="360" y="240" as="targetPoint" />
          </mxGeometry>
        </mxCell>
        <mxCell id="elkEW9s6FneCZuYYw3mL-20" value="" style="endArrow=none;html=1;" edge="1" parent="1">
          <mxGeometry width="50" height="50" relative="1" as="geometry">
            <mxPoint x="190" y="380" as="sourcePoint" />
            <mxPoint x="360" y="380" as="targetPoint" />
          </mxGeometry>
        </mxCell>
        <mxCell id="elkEW9s6FneCZuYYw3mL-21" value="z = n * 0.35" style="ellipse;whiteSpace=wrap;html=1;strokeColor=#000000;" vertex="1" parent="1">
          <mxGeometry x="360" y="160" width="140" height="40" as="geometry" />
        </mxCell>
        <mxCell id="elkEW9s6FneCZuYYw3mL-22" value="z = n* 0.5" style="ellipse;whiteSpace=wrap;html=1;strokeColor=#000000;" vertex="1" parent="1">
          <mxGeometry x="360" y="220" width="140" height="40" as="geometry" />
        </mxCell>
        <mxCell id="elkEW9s6FneCZuYYw3mL-23" value="z = n * 0.65" style="ellipse;whiteSpace=wrap;html=1;strokeColor=#000000;" vertex="1" parent="1">
          <mxGeometry x="360" y="290" width="140" height="40" as="geometry" />
        </mxCell>
        <mxCell id="elkEW9s6FneCZuYYw3mL-24" value="z = n*0.7 +20" style="ellipse;whiteSpace=wrap;html=1;strokeColor=#000000;" vertex="1" parent="1">
          <mxGeometry x="360" y="360" width="140" height="40" as="geometry" />
        </mxCell>
        <mxCell id="elkEW9s6FneCZuYYw3mL-25" value="" style="endArrow=classic;html=1;exitX=1;exitY=0.5;exitDx=0;exitDy=0;entryX=0;entryY=0.5;entryDx=0;entryDy=0;" edge="1" parent="1" source="elkEW9s6FneCZuYYw3mL-21" target="elkEW9s6FneCZuYYw3mL-29">
          <mxGeometry width="50" height="50" relative="1" as="geometry">
            <mxPoint x="570" y="120" as="sourcePoint" />
            <mxPoint x="570" y="160" as="targetPoint" />
          </mxGeometry>
        </mxCell>
        <mxCell id="elkEW9s6FneCZuYYw3mL-26" value="" style="endArrow=classic;html=1;exitX=1;exitY=0.5;exitDx=0;exitDy=0;entryX=0;entryY=0.5;entryDx=0;entryDy=0;" edge="1" parent="1" source="elkEW9s6FneCZuYYw3mL-22" target="elkEW9s6FneCZuYYw3mL-29">
          <mxGeometry width="50" height="50" relative="1" as="geometry">
            <mxPoint x="660" y="130" as="sourcePoint" />
            <mxPoint x="660" y="170" as="targetPoint" />
          </mxGeometry>
        </mxCell>
        <mxCell id="elkEW9s6FneCZuYYw3mL-27" value="" style="endArrow=classic;html=1;entryX=0;entryY=0.5;entryDx=0;entryDy=0;exitX=1;exitY=0.5;exitDx=0;exitDy=0;" edge="1" parent="1" source="elkEW9s6FneCZuYYw3mL-23" target="elkEW9s6FneCZuYYw3mL-29">
          <mxGeometry width="50" height="50" relative="1" as="geometry">
            <mxPoint x="510" y="310" as="sourcePoint" />
            <mxPoint x="570" y="310" as="targetPoint" />
          </mxGeometry>
        </mxCell>
        <mxCell id="elkEW9s6FneCZuYYw3mL-28" value="" style="endArrow=classic;html=1;exitX=1;exitY=0.5;exitDx=0;exitDy=0;entryX=0;entryY=0.5;entryDx=0;entryDy=0;" edge="1" parent="1" source="elkEW9s6FneCZuYYw3mL-24" target="elkEW9s6FneCZuYYw3mL-29">
          <mxGeometry width="50" height="50" relative="1" as="geometry">
            <mxPoint x="610" y="330" as="sourcePoint" />
            <mxPoint x="610" y="370" as="targetPoint" />
          </mxGeometry>
        </mxCell>
        <mxCell id="elkEW9s6FneCZuYYw3mL-29" value="print n" style="ellipse;whiteSpace=wrap;html=1;strokeColor=#000000;" vertex="1" parent="1">
          <mxGeometry x="580" y="260" width="140" height="40" as="geometry" />
        </mxCell>
        <mxCell id="elkEW9s6FneCZuYYw3mL-30" value="" style="endArrow=classic;html=1;exitX=1;exitY=0.5;exitDx=0;exitDy=0;entryX=0;entryY=0.5;entryDx=0;entryDy=0;" edge="1" parent="1" source="elkEW9s6FneCZuYYw3mL-29" target="elkEW9s6FneCZuYYw3mL-31">
          <mxGeometry width="50" height="50" relative="1" as="geometry">
            <mxPoint x="660" y="140" as="sourcePoint" />
            <mxPoint x="740" y="240" as="targetPoint" />
          </mxGeometry>
        </mxCell>
        <mxCell id="elkEW9s6FneCZuYYw3mL-31" value="" style="ellipse;html=1;shape=endState;fillColor=#000000;" vertex="1" parent="1">
          <mxGeometry x="760" y="265" width="30" height="30" as="geometry" />
        </mxCell>
        <mxCell id="elkEW9s6FneCZuYYw3mL-32" value="n &amp;lt; 50" style="text;html=1;strokeColor=none;fillColor=none;align=center;verticalAlign=middle;whiteSpace=wrap;rounded=0;" vertex="1" parent="1">
          <mxGeometry x="210" y="160" width="40" height="20" as="geometry" />
        </mxCell>
        <mxCell id="elkEW9s6FneCZuYYw3mL-33" value="50 &amp;lt; n &amp;lt; 75" style="text;html=1;strokeColor=none;fillColor=none;align=center;verticalAlign=middle;whiteSpace=wrap;rounded=0;" vertex="1" parent="1">
          <mxGeometry x="210" y="220" width="100" height="20" as="geometry" />
        </mxCell>
        <mxCell id="elkEW9s6FneCZuYYw3mL-34" value="75 &amp;lt; n &amp;lt; 90" style="text;html=1;strokeColor=none;fillColor=none;align=center;verticalAlign=middle;whiteSpace=wrap;rounded=0;" vertex="1" parent="1">
          <mxGeometry x="210" y="290" width="90" height="20" as="geometry" />
        </mxCell>
        <mxCell id="elkEW9s6FneCZuYYw3mL-35" value="n &amp;gt; 90" style="text;html=1;strokeColor=none;fillColor=none;align=center;verticalAlign=middle;whiteSpace=wrap;rounded=0;" vertex="1" parent="1">
          <mxGeometry x="210" y="360" width="40" height="20" as="geometry" />
        </mxCell>
      </root>
    </mxGraphModel>
  </diagram>
</mxfile>
